# xmcd
#
# Track frame offsets:
# 150
# 19356
# 32861
# 50150
# 61221
# 75180
# 93571
# 105400
# 121565
# 136171
#
# Disc length: 2039 seconds
#
#
# Revision: 0
# Processed by: cddbd v1.4PL0 Copyright (c) Steve Scherf et al.
# Submitted via: FreeRIP 2.21 
#
DISCID=7607f50a
DTITLE=Stan McDaniel - Stan Mcdaniel
DYEAR=2002
DGENRE=Country
TTITLE0=Said Like That
TTITLE1=If I Ever Get Over You
TTITLE2=Going Out Of Your Mind
TTITLE3=How Low
TTITLE4=There Goes The Neighborhood
TTITLE5=Side By Side
TTITLE6=Black and Blue
TTITLE7=The Greater The Love
TTITLE8=Fools Moon
TTITLE9=Where the Hurt Is
EXTD=
EXTT0=
EXTT1=
EXTT2=
EXTT3=
EXTT4=
EXTT5=
EXTT6=
EXTT7=
EXTT8=
EXTT9=
PLAYORDER=
